<?xml version="1.0" encoding="iso-8859-1"?>
<!-- Generator: Adobe Illustrator 16.0.2, SVG Export Plug-In . SVG Version: 6.00 Build 0)  -->
<!DOCTYPE svg PUBLIC "-//W3C//DTD SVG 1.1//EN" "http://www.w3.org/Graphics/SVG/1.1/DTD/svg11.dtd">
<svg version="1.1" id="Layer_1" xmlns="http://www.w3.org/2000/svg" xmlns:xlink="http://www.w3.org/1999/xlink" x="0px" y="0px"
	 width="1080px" height="1080px" viewBox="0 0 1080 1080" style="enable-background:new 0 0 1080 1080;" xml:space="preserve">
<path style="fill:#F5C410;" d="M22.499,539.275c0-285.703,231.605-517.309,517.313-517.309
	c285.709,0,517.324,231.605,517.324,517.309c0,285.713-231.615,517.318-517.324,517.318
	C254.104,1056.594,22.499,824.988,22.499,539.275"/>
<path style="fill:#ED9422;" d="M936.038,539.275c0,218.836-177.4,396.227-396.227,396.227
	c-218.834,0-396.217-177.391-396.217-396.227c0-218.824,177.383-396.217,396.217-396.217
	C758.638,143.059,936.038,320.451,936.038,539.275z"/>
<path style="fill:none;stroke:#000000;stroke-width:7;stroke-miterlimit:10;" d="M8.308,539.275
	c0-293.539,237.955-531.498,531.504-531.498c293.541,0,531.514,237.959,531.514,531.498c0,293.551-237.973,531.51-531.514,531.51
	C246.263,1070.785,8.308,832.826,8.308,539.275"/>
<g>
	<g>
		<g>
			<g>
				<g>
					<path d="M699.046,495.992c3.268,3.354,6.377,6.82,9.393,10.361C705.423,502.813,702.313,499.346,699.046,495.992z"/>
					<path d="M752.354,588.527c1.27,4.482,2.414,9,3.398,13.574C754.763,597.533,753.624,593.01,752.354,588.527z"/>
					<path d="M735.737,546.605c2.08,3.99,4.037,8.006,5.861,12.104C739.774,554.611,737.817,550.596,735.737,546.605z"/>
					<path d="M742.257,560.213c1.783,4.055,3.432,8.15,4.953,12.285C745.688,568.363,744.04,564.268,742.257,560.213z"/>
					<path d="M747.589,573.498c1.555,4.33,2.955,8.719,4.225,13.115C750.544,582.217,749.144,577.828,747.589,573.498z"/>
					<path d="M758.272,616.414c-0.672-4.695-1.492-9.396-2.482-14.051C756.761,607.008,757.601,611.719,758.272,616.414z"/>
					<path d="M366.628,523.328c-2.867,4.109-5.512,8.314-8.07,12.545C361.116,531.643,363.761,527.438,366.628,523.328z"/>
					<path d="M333.915,595.824c1.109-4.621,2.361-9.205,3.801-13.766C336.261,586.609,335.028,591.197,333.915,595.824z"/>
					<path d="M727.745,532.572c2.371,3.852,4.648,7.811,6.801,11.797C732.394,540.383,730.116,536.424,727.745,532.572z"/>
					<path d="M337.729,581.938c1.453-4.561,3.09-9.09,4.877-13.59C340.819,572.848,339.183,577.377,337.729,581.938z"/>
					<path d="M747.22,721.752c-89.033,78.502-228.498,86.189-336.379,10.992c-34.869-24.297-62.734-54.707-83.09-88.443
						c-0.789,69.254,31.564,137.682,92.654,180.264c98.047,68.344,232.908,44.256,301.244-53.789
						C732.487,755.24,740.96,738.744,747.22,721.752z"/>
					<path d="M719.894,520.934c2.566,3.564,5.014,7.16,7.311,10.834C724.907,528.094,722.46,524.498,719.894,520.934z"/>
					<path d="M710.212,508.414c2.881,3.455,5.648,6.947,8.291,10.559C715.86,515.361,713.093,511.869,710.212,508.414z"/>
					<path d="M356.72,538.998c-2.455,4.256-4.801,8.545-6.947,12.877C351.919,547.543,354.265,543.254,356.72,538.998z"/>
					<path d="M343.86,565.207c1.807-4.412,3.719-8.785,5.818-13.121C347.579,556.422,345.667,560.795,343.86,565.207z"/>
				</g>
				<path d="M757.845,613.939c0.008-0.004,0.018-0.018,0.027-0.045c-6.77-43.572-26.738-85.068-58.826-117.902
					c-2.408,4.076-4.93,8.094-7.684,12.041c-59.385,85.205-176.58,106.131-261.781,46.746
					c-19.805-13.807-36.109-30.746-48.738-49.678c-5.01,5.756-9.762,11.832-14.215,18.227
					c-15.184,21.779-25.785,45.389-32.047,69.676c18.26,25.273,41.188,48.211,68.619,67.326
					C523.007,743.84,681.774,723.068,757.845,613.939z"/>
				<path d="M657.483,484.428c-46.336,66.486-137.805,82.818-204.293,36.475c-66.488-46.34-82.828-137.814-36.477-204.305
					c46.346-66.488,137.822-82.83,204.316-36.484C687.526,326.455,703.835,417.932,657.483,484.428z"/>
				<polygon points="566.495,883.432 521.216,883.029 544.251,956.598 				"/>
			</g>
			<path d="M362.89,499.346c0,0-252.357,58.625-185.404,175.227C244.437,791.193,362.89,499.346,362.89,499.346z"/>
			<g>
				<path style="fill:none;stroke:#000000;stroke-width:3.28;stroke-miterlimit:10;" d="M580.741,294.361
					c0,0,20.539-95.85-51.039-144.148"/>
				<path style="fill:none;stroke:#000000;stroke-width:3.28;stroke-miterlimit:10;" d="M499.009,271.254
					c0,0,20.559-95.854-51.045-144.154"/>
				<path d="M453.409,129.725c-7.557,10.842-22.84,13.268-34.123,5.41c-11.303-7.881-14.299-23.053-6.74-33.895
					c7.568-10.859,22.838-13.293,34.137-5.414C457.962,103.689,460.978,118.859,453.409,129.725z"/>
				<path d="M535.274,154.076c-7.557,10.85-22.834,13.279-34.123,5.412c-11.287-7.861-14.301-23.041-6.73-33.896
					c7.563-10.85,22.84-13.273,34.127-5.406C539.841,128.047,542.837,143.217,535.274,154.076z"/>
			</g>
		</g>
	</g>
	<path d="M719.767,496.414c0,0,254.465,48.648,192.158,167.795C849.616,783.359,719.767,496.414,719.767,496.414z"/>
	<polyline style="fill:#F3C313;" points="447.12,320.451 423.81,346.256 517.052,360.412 	"/>
	<polyline style="fill:#F3C313;" points="626.776,320.451 650.089,346.256 556.847,360.412 	"/>
</g>
</svg>
