<?xml version="1.0" encoding="utf-8"?>
<!-- Generator: Adobe Illustrator 16.0.2, SVG Export Plug-In . SVG Version: 6.00 Build 0)  -->
<!DOCTYPE svg PUBLIC "-//W3C//DTD SVG 1.1//EN" "http://www.w3.org/Graphics/SVG/1.1/DTD/svg11.dtd">
<svg version="1.1" id="Layer_1" xmlns="http://www.w3.org/2000/svg" xmlns:xlink="http://www.w3.org/1999/xlink" x="0px" y="0px"
	 width="820px" height="256px" viewBox="64.5 0 820 256" enable-background="new 64.5 0 820 256" xml:space="preserve">
<g>
	<g>
		<path fill-rule="evenodd" clip-rule="evenodd" fill="#363636" d="M417.825,102.958c-6.788,2.367-13.048,4.531-19.292,6.735
			c-3.732,1.318-3.881,1.333-3.524-2.469c0.514-5.493,1.323-10.959,1.92-16.445c0.155-1.415,0.85-1.994,2.139-2.336
			c12.089-3.204,24.18-6.396,36.231-9.732c2.203-0.609,2.359,0.128,2.054,1.902c-1.386,8.032-2.699,16.077-4.109,24.105
			c-2.897,16.494-5.928,32.967-8.696,49.482c-0.645,3.847-1.903,6.125-5.963,7.653c-23.805,8.956-47.454,18.328-71.165,27.534
			c-3.598,1.396-3.877,1.163-3.152-2.582c1.367-7.069,2.855-14.117,4.193-21.192c0.287-1.518,1.084-2.068,2.448-2.475
			c16.861-5.024,33.69-10.157,50.577-15.095c2.141-0.625,3.165-1.645,3.769-3.655C409.337,130.796,413.488,117.223,417.825,102.958z
			"/>
		<path fill-rule="evenodd" clip-rule="evenodd" fill="#363636" d="M803.256,154.835c6.668-2.251,13.098-4.341,19.459-6.614
			c2.475-0.885,3.574-0.819,3.098,2.296c-0.836,5.455-1.424,10.947-2.082,16.429c-0.188,1.558-0.861,2.348-2.511,2.755
			c-12.056,2.983-24.095,6.04-36.104,9.205c-2.253,0.595-2.312-0.127-1.963-1.949c3.25-16.978,6.54-33.946,9.631-50.954
			c1.572-8.645,3.023-17.311,4.816-25.917c0.328-1.573,0.954-2.299,2.44-2.856c24.73-9.258,49.433-18.59,74.148-27.885
			c3.759-1.413,3.971-1.317,3.189,2.731c-1.385,7.176-3.033,14.3-4.504,21.459c-0.308,1.493-1.383,1.668-2.521,1.993
			c-13.974,4.001-27.944,8.019-41.913,12.037c-2.75,0.79-5.452,1.854-8.254,2.332c-2.622,0.448-3.663,1.894-4.394,4.231
			c-4.116,13.158-8.35,26.281-12.526,39.422C803.179,153.826,803.256,154.158,803.256,154.835z"/>
		<path fill-rule="evenodd" clip-rule="evenodd" fill="#363636" d="M357.68,61.336c1.118-5.413,2.143-10.167,3.063-14.941
			c0.281-1.456,1.148-2.108,2.411-2.626c8.337-3.421,16.681-6.827,24.954-10.396c1.438-0.62,1.875-0.205,2.33,0.925
			c0.474,1.177,0.813,2.433,1.453,3.511c2.899,4.888,3.845,9.789,2.646,15.636c-3.003,14.64-5.268,29.431-7.862,44.154
			c-1.64,9.306-3.245,18.619-5.073,27.888c-0.571,2.896,0.254,2.818,2.61,2.22c6.146-1.562,12.365-2.832,19.117-4.344
			c-2.01,6.302-3.892,12.161-5.737,18.031c-0.341,1.086-1.321,1.026-2.06,1.182c-13.251,2.779-26.513,5.506-40.014,8.294
			c3.07-16.792,6.091-33.354,9.128-49.912c2.585-14.095,5.164-28.189,7.813-42.271c0.38-2.022-0.753-1.618-1.775-1.316
			C366.533,58.595,362.403,59.888,357.68,61.336z"/>
		<path fill-rule="evenodd" clip-rule="evenodd" fill="#363636" d="M817.76,134.403c1.96-5.864,3.924-11.452,5.666-17.108
			c0.568-1.844,1.976-1.666,3.211-1.91c12.917-2.547,25.845-5.046,39.086-7.62c-1.507,7.729-3.001,15.368-4.487,23.009
			c-4.413,22.702-8.79,45.409-13.286,68.094c-0.463,2.329-0.239,2.86,2.146,2.074c3.905-1.288,7.888-2.33,12.437-3.648
			c-1.204,5.446-2.322,10.462-3.413,15.483c-0.211,0.972-0.876,1.325-1.717,1.663c-8.573,3.443-17.147,6.883-25.677,10.432
			c-1.285,0.536-1.73,0.105-2.164-0.894c-1.518-3.496-3.037-6.989-4.555-10.483c-0.427-0.985-0.489-1.904-0.273-3.048
			c3.146-16.568,6.161-33.161,9.262-49.737c1.757-9.393,3.563-18.778,5.461-28.144c0.459-2.258,0.242-2.812-2.25-2.161
			c-5.842,1.519-11.772,2.694-17.673,3.984C819.048,134.496,818.521,134.403,817.76,134.403z"/>
		<path fill-rule="evenodd" clip-rule="evenodd" fill="#363636" d="M525.785,174.058c3.043-11.434,5.896-22.155,8.762-32.924
			c0.153,0.199,0.321,0.327,0.366,0.49c2.316,8.285,7.667,10.15,15.093,5.726c11.973-7.132,12.845-17.471,11.402-28.41
			c-1.076-8.168-11.504-11.514-17.799-6.206c-1.116,0.941-2.093,2.05-3.857,3.798c1.417-5.983,2.605-11.047,3.816-16.104
			c0.717-2.993,1.657-5.947,2.143-8.975c0.32-1.999,1.338-2.867,3.066-3.534c15.022-5.789,30.561,3.942,31.765,20.056
			c1.292,17.268-4.747,31.726-17.594,43.154c-3.519,3.129-8.01,5.174-12.086,7.666C542.718,163.776,534.552,168.725,525.785,174.058
			z"/>
		<path fill-rule="evenodd" clip-rule="evenodd" fill="#363636" d="M695.728,82.618c-3.145,11.33-6.057,21.819-8.974,32.328
			c-0.697-0.169-0.665-0.917-0.826-1.42c-2.137-6.691-7.055-8.608-13.368-5.338c-12.773,6.616-15.097,18.084-12.803,30.35
			c1.271,6.8,11.249,9.979,16.739,5.795c1.402-1.067,2.639-2.352,4.567-4.094c-1.475,5.854-2.754,10.952-4.045,16.046
			c-0.677,2.674-1.613,5.31-1.995,8.024c-0.352,2.509-1.704,3.497-3.902,4.27c-15.034,5.276-30.152-5.026-30.952-20.969
			c-0.574-11.446,2.221-21.987,8.324-31.519c3.604-5.631,8.166-10.576,14.166-13.962c5.46-3.08,10.835-6.314,16.233-9.504
			C684.274,89.446,689.639,86.239,695.728,82.618z"/>
		<path fill-rule="evenodd" clip-rule="evenodd" fill="#363636" d="M446.139,97.915c4.568-3.296,8.865-6.383,13.146-9.493
			c0.952-0.691,1.853-0.849,2.95-0.271c3.1,1.632,6.202,3.265,9.373,4.749c1.762,0.825,0.887,1.836,0.431,2.829
			c-4.382,9.545-8.783,19.082-13.18,28.62c-2.088,4.529-4.058,9.118-6.311,13.563c-1.076,2.121-0.256,2.748,1.573,3.341
			c5.342,1.73,10.644,3.589,15.986,5.317c1.249,0.404,2.035,0.706,1.73,2.355c-1.328,7.195-2.556,14.411-3.725,21.634
			c-0.263,1.621-0.653,1.896-2.188,1.112c-12.28-6.275-24.587-12.503-36.931-18.653c-2.271-1.13-1.343-2.468-0.678-3.911
			c6.26-13.582,12.524-27.163,18.787-40.745c0.533-1.157,1.051-2.32,1.583-3.479C450.713,100.483,450.714,100.484,446.139,97.915z"
			/>
		<path fill-rule="evenodd" clip-rule="evenodd" fill="#363636" d="M774.38,159.741c-4.386,3.067-8.751,6.093-13.078,9.169
			c-1.089,0.772-2.012,0.832-3.208,0.157c-2.962-1.666-5.963-3.277-9.032-4.732c-1.711-0.813-0.981-1.782-0.497-2.8
			c4.571-9.585,9.159-19.16,13.735-28.744c2.15-4.501,4.222-9.042,6.459-13.501c0.857-1.709,0.506-2.289-1.293-2.881
			c-5.532-1.819-10.977-3.898-16.481-5.807c-1.264-0.438-1.857-0.769-1.517-2.425c1.439-6.964,2.692-13.967,3.888-20.978
			c0.297-1.74,0.438-2.51,2.476-1.429c12.104,6.419,24.25,12.76,36.454,18.984c2.351,1.198,1.309,2.474,0.656,3.855
			c-6.802,14.409-13.623,28.809-20.444,43.209C770.202,156.667,770.196,156.664,774.38,159.741z"/>
		<path fill-rule="evenodd" clip-rule="evenodd" fill="#363636" d="M475.511,176.313c0.547-5.414,1.018-10.447,1.569-15.47
			c1.354-12.339,2.773-24.671,4.114-37.012c1.158-10.652,2.276-21.31,3.32-31.974c0.123-1.248,0.695-1.671,1.693-1.851
			c6.784-1.224,13.571-2.436,20.36-3.633c2.642-0.467,1.46,1.297,1.234,2.302c-4.8,21.513-9.566,43.034-14.537,64.508
			c-0.669,2.888,0.24,3.32,2.595,2.957c2.515-0.388,2.632,0.246,2.237,2.816c-1.218,7.94-5.313,12.531-13.273,14.022
			C481.759,173.556,478.872,175.078,475.511,176.313z"/>
		<path fill-rule="evenodd" clip-rule="evenodd" fill="#363636" d="M499.288,189.73c3.4-14.299,6.674-28.076,9.952-41.853
			c2.771-11.643,5.539-23.286,8.339-34.922c0.453-1.886,0.277-2.586-2.046-2.191c-5.993,1.018-6.018,0.887-4.663-4.989
			c0.236-1.032,0.738-2.071,0.696-3.089c-0.224-5.531,3.241-7.355,7.852-8.698c6.244-1.819,12.333-4.176,18.982-6.473
			c-1.64,7.604-3.147,14.724-4.711,21.831c-4.872,22.139-9.795,44.267-14.597,66.419c-0.404,1.864-1.27,2.967-2.82,3.873
			C510.79,182.843,505.351,186.12,499.288,189.73z"/>
		<path fill-rule="evenodd" clip-rule="evenodd" fill="#363636" d="M722.348,67.251c-2.295,9.355-4.459,18.294-6.684,27.218
			c-4.076,16.362-8.152,32.725-12.324,49.062c-0.554,2.169-0.314,2.898,2.074,2.418c1.741-0.351,3.485-0.947,5.654-0.621
			c-1.005,4.695-2.025,9.375-2.994,14.065c-0.185,0.893-0.722,1.095-1.497,1.35c-7.937,2.624-15.854,5.309-24.314,8.156
			c1.239-5.688,2.316-10.941,3.531-16.164c5.501-23.659,11.077-47.302,16.514-70.976c0.578-2.515,1.76-4.004,4.001-5.217
			C711.6,73.68,716.734,70.527,722.348,67.251z"/>
		<path fill-rule="evenodd" clip-rule="evenodd" fill="#363636" d="M722.555,100.682c1.318-4.036,2.532-7.652,3.668-11.292
			c0.348-1.112,0.94-1.809,2.057-2.194c5.018-1.734,10.074-3.373,15.001-5.342c2.73-1.092,2.771,0.067,2.514,2.15
			c-1.549,12.537-3.078,25.077-4.591,37.62c-1.705,14.135-3.43,28.268-5.03,42.415c-0.229,2.023-0.76,2.881-2.96,3.183
			c-6.197,0.851-12.364,1.978-18.509,3.173c-2.329,0.453-2.46-0.379-2.01-2.256c4.311-17.958,8.588-35.924,12.862-53.891
			c0.859-3.61,1.471-7.294,2.57-10.828c0.808-2.598-0.2-2.95-2.336-2.752C724.855,100.754,723.908,100.682,722.555,100.682z"/>
		<path fill-rule="evenodd" clip-rule="evenodd" fill="#363636" d="M630.038,89.507c-3.078,13.203-6.031,25.922-9.016,38.635
			c-0.91,3.885-1.594,7.742,1.062,11.257c0.887,1.173-0.059,1.729-0.62,2.419c-2.03,2.487-4.551,4.434-7.121,6.312
			c-6.589,4.819-13.644,8.861-21.44,12.873c1.362-5.552,2.614-10.608,3.843-15.671c2.488-10.257,4.963-20.519,7.438-30.779
			c0.691-2.865,0.681-5.834-0.691-8.361c-1.179-2.17-0.351-3.318,1.025-4.613c2.5-2.354,5.492-3.959,8.538-5.453
			C618.361,93.52,623.858,91.391,630.038,89.507z"/>
		<path fill-rule="evenodd" clip-rule="evenodd" fill="#363636" d="M369.854,32.941c-0.33-5.901,1.049-11.328,1.067-16.837
			c0.002-0.768,0.428-1.058,1.179-1.176c10.57-1.666,21.138-3.35,31.7-5.062c1.236-0.2,1.713,0.444,2.096,1.421
			c3.52,8.979,7.147,17.917,10.53,26.947c1.229,3.279-0.262,6.706-0.358,10.073c-0.17,5.93-0.945,11.84-1.302,17.768
			c-0.109,1.816-0.73,2.522-2.521,2.889c-3.735,0.764-7.422,1.788-11.099,2.808c-2.066,0.571-2.722-0.063-2.256-2.112
			c1.406-6.201,2.553-12.473,4.242-18.595c1.521-5.509,2.016-10.643-1.126-15.842c-1.846-3.055-3.14-6.479-4.396-9.845
			c-0.765-2.045-1.677-2.106-3.513-1.405C386.191,26.994,378.227,29.86,369.854,32.941z"/>
		<path fill-rule="evenodd" clip-rule="evenodd" fill="#363636" d="M849.881,230.944c-0.349,3.289-0.832,7.083-1.11,10.892
			c-0.096,1.314-0.715,1.533-1.768,1.688c-10.283,1.511-20.563,3.039-30.84,4.603c-1.305,0.199-1.924-0.292-2.369-1.471
			c-3.378-8.931-6.807-17.839-10.202-26.762c-1.008-2.646,0.093-5.255,0.287-7.864c0.513-6.874,1.3-13.728,1.79-20.603
			c0.119-1.661,0.785-2.082,2.201-2.384c3.42-0.727,6.798-1.65,10.205-2.436c3.862-0.889,3.911-0.85,3.055,2.884
			c-1.776,7.749-3.555,15.499-5.438,23.223c-0.502,2.062-0.414,3.902,0.46,5.851c2.128,4.74,4.186,9.516,6.126,14.337
			c0.654,1.626,1.242,2.049,3.033,1.38c7.159-2.673,14.425-5.061,21.587-7.729c2.561-0.953,3.804-0.855,3.124,2.29
			C849.91,229.356,849.945,229.902,849.881,230.944z"/>
		<path fill-rule="evenodd" clip-rule="evenodd" fill="#363636" d="M676.912,78.827c-17.333,11.392-34.393,22.119-46.294,39.819
			c0.775-5.05,1.412-9.568,2.177-14.065c0.743-4.374,1.705-8.712,2.402-13.093c0.421-2.647,1.692-4.29,4.182-5.387
			c8.834-3.889,18.214-5.399,27.667-6.591C670.076,79.13,673.114,78.543,676.912,78.827z"/>
		<path fill-rule="evenodd" clip-rule="evenodd" fill="#363636" d="M592.121,134.707c-1.79,10.356-3.044,19.903-5.181,29.309
			c-0.403,1.782-1.591,2.347-2.91,3.016c-7.389,3.743-15.436,5.12-23.485,6.396c-4.598,0.728-9.255,1.085-14.044,1.3
			C563.099,163.344,580.169,152.621,592.121,134.707z"/>
	</g>
</g>
<path fill="#F5C410" d="M77.719,128.279c0-64.797,52.528-117.325,117.327-117.325s117.328,52.528,117.328,117.325
	c0,64.8-52.529,117.329-117.328,117.329S77.719,193.079,77.719,128.279"/>
<path fill="#ED9422" d="M284.909,128.279c0,49.633-40.234,89.865-89.863,89.865c-49.632,0-89.863-40.232-89.863-89.865
	c0-49.629,40.23-89.861,89.863-89.861C244.674,38.418,284.909,78.65,284.909,128.279z"/>
<path fill="none" stroke="#000000" stroke-width="7" stroke-miterlimit="10" d="M74.5,128.279
	c0-66.575,53.968-120.544,120.545-120.544c66.575,0,120.548,53.969,120.548,120.544c0,66.577-53.973,120.547-120.548,120.547
	C128.468,248.826,74.5,194.856,74.5,128.279"/>
<g>
	<g>
		<g>
			<g>
				<g>
					<path d="M231.16,118.463c0.741,0.761,1.446,1.547,2.129,2.351C232.606,120.011,231.901,119.224,231.16,118.463z"/>
					<path d="M243.25,139.449c0.289,1.018,0.548,2.042,0.771,3.08C243.795,141.492,243.539,140.467,243.25,139.449z"/>
					<path d="M239.482,129.942c0.47,0.904,0.915,1.815,1.329,2.744C240.397,131.758,239.952,130.847,239.482,129.942z"/>
					<path d="M240.959,133.028c0.405,0.919,0.778,1.848,1.123,2.786C241.738,134.876,241.365,133.947,240.959,133.028z"/>
					<path d="M242.168,136.041c0.353,0.982,0.671,1.978,0.958,2.976C242.839,138.019,242.521,137.023,242.168,136.041z"/>
					<path d="M244.592,145.774c-0.151-1.064-0.339-2.131-0.563-3.188C244.25,143.642,244.441,144.71,244.592,145.774z"/>
					<path d="M155.767,124.663c-0.65,0.932-1.25,1.886-1.83,2.845C154.517,126.549,155.117,125.595,155.767,124.663z"/>
					<path d="M148.348,141.104c0.251-1.048,0.535-2.088,0.861-3.121C148.88,139.015,148.6,140.056,148.348,141.104z"/>
					<path d="M237.667,126.76c0.539,0.873,1.056,1.771,1.544,2.674C238.723,128.531,238.207,127.633,237.667,126.76z"/>
					<path d="M149.212,137.956c0.33-1.034,0.701-2.063,1.106-3.082C149.914,135.894,149.542,136.922,149.212,137.956z"/>
					<path d="M242.086,169.666c-20.193,17.804-51.824,19.548-76.292,2.491c-7.908-5.51-14.228-12.406-18.845-20.059
						c-0.179,15.708,7.159,31.228,21.014,40.885c22.237,15.502,52.824,10.038,68.323-12.199
						C238.744,177.26,240.666,173.52,242.086,169.666z"/>
					<path d="M235.887,124.12c0.582,0.808,1.138,1.624,1.659,2.457C237.025,125.744,236.469,124.928,235.887,124.12z"/>
					<path d="M233.692,121.28c0.653,0.783,1.28,1.575,1.882,2.395C234.972,122.855,234.345,122.063,233.692,121.28z"/>
					<path d="M153.52,128.217c-0.557,0.966-1.089,1.938-1.576,2.921C152.431,130.154,152.963,129.183,153.52,128.217z"/>
					<path d="M150.603,134.16c0.41-0.999,0.844-1.991,1.32-2.976C151.447,132.169,151.013,133.161,150.603,134.16z"/>
				</g>
				<path d="M244.496,145.214c0.001-0.002,0.004-0.004,0.005-0.01c-1.534-9.883-6.063-19.294-13.341-26.741
					c-0.547,0.925-1.117,1.836-1.743,2.731c-13.469,19.323-40.048,24.07-59.372,10.602c-4.491-3.132-8.189-6.973-11.054-11.267
					c-1.136,1.305-2.214,2.684-3.224,4.134c-3.443,4.938-5.849,10.293-7.269,15.803c4.142,5.73,9.342,10.934,15.563,15.269
					C191.234,174.676,227.243,169.964,244.496,145.214z"/>
				<path d="M221.733,115.841c-10.509,15.077-31.254,18.783-46.334,8.272c-15.079-10.51-18.785-31.257-8.273-46.337
					c10.513-15.079,31.259-18.785,46.341-8.274C228.547,80.012,232.245,100.759,221.733,115.841z"/>
				<polygon points="201.096,206.336 190.828,206.243 196.051,222.929 				"/>
			</g>
			<path d="M154.919,119.224c0,0-57.234,13.296-42.049,39.741C128.055,185.415,154.919,119.224,154.919,119.224z"/>
			<g>
				<path fill="none" stroke="#000000" stroke-width="3.28" stroke-miterlimit="10" d="M204.329,72.733
					c0,0,4.658-21.738-11.576-32.693"/>
				<path fill="none" stroke="#000000" stroke-width="3.28" stroke-miterlimit="10" d="M185.792,67.492
					c0,0,4.663-21.739-11.577-32.694"/>
				<path d="M175.449,35.394c-1.713,2.459-5.18,3.01-7.738,1.228c-2.564-1.788-3.244-5.229-1.529-7.688
					c1.717-2.463,5.18-3.015,7.742-1.227C176.482,29.489,177.166,32.93,175.449,35.394z"/>
				<path d="M194.016,40.916c-1.714,2.461-5.179,3.013-7.739,1.229c-2.561-1.783-3.243-5.226-1.526-7.688
					c1.716-2.461,5.18-3.011,7.74-1.226C195.051,35.013,195.731,38.453,194.016,40.916z"/>
			</g>
		</g>
	</g>
	<path d="M235.859,118.559c0,0,57.713,11.033,43.581,38.056C265.31,183.638,235.859,118.559,235.859,118.559z"/>
	<polyline fill="#F3C313" points="174.023,78.65 168.736,84.503 189.883,87.714 	"/>
	<polyline fill="#F3C313" points="214.77,78.65 220.055,84.503 198.908,87.714 	"/>
</g>
</svg>
